<svg xmlns="http://www.w3.org/2000/svg" width="174.909" height="56.48" viewBox="0 0 174.909 56.48">
  <g id="Group_124" data-name="Group 124" transform="translate(-71.056 -168.146)">
    <path id="Path_512" data-name="Path 512" d="M123.312,194.853a8.416,8.416,0,0,0-2.445-5.994l-5.93-5.961-5.931-5.961-5.93,5.961-5.931,5.961-5.93,5.961,5.93,5.961,5.931-5.961,5.93-5.961.027.027,5.9,5.934-5.931,5.961.008.008h0l-.008-.008-5.93,5.961L97.145,212.7l-5.93-5.961-5.931-5.961-5.93-5.961,5.941-5.973,5.92-5.95,3.688-3.709,1.868,3.1,3.195-14.143-14,3.618,2.842,1.631-3.524,3.541-5.93,5.961L78.1,184.155l-.009.009c-1.354,1.252-2.436,2.354-3.293,3.3a21.085,21.085,0,0,0-2.969,3.872l-.009.017a8.383,8.383,0,0,0,1.645,9.386l5.887,6.006,5.93,5.961,5.931,5.961,5.93,5.961,5.931-5.961,5.93-5.961,5.931-5.961,5.93-5.961,0-.006A8.363,8.363,0,0,0,123.312,194.853Z" transform="translate(0 0)" fill="#e9b640"/>
    <path id="Path_513" data-name="Path 513" d="M573,334.125a7.339,7.339,0,0,1-2.2-5.337q-.027-.782-.027-2.507t.027-2.507a7.144,7.144,0,0,1,2.224-5.243,8.194,8.194,0,0,1,5.728-1.9,9.95,9.95,0,0,1,4.259.836,6.856,6.856,0,0,1,2.7,2.089,4.541,4.541,0,0,1,.97,2.466v.054a.473.473,0,0,1-.162.364.575.575,0,0,1-.4.148h-2.776a.7.7,0,0,1-.4-.094.79.79,0,0,1-.243-.337,3.842,3.842,0,0,0-1.321-1.712,4.247,4.247,0,0,0-2.614-.714,4.081,4.081,0,0,0-2.952,1.024,4.442,4.442,0,0,0-1.146,3.154q-.027.782-.027,2.372,0,1.564.027,2.372.162,4.286,4.151,4.286a4.434,4.434,0,0,0,3.073-1.038,3.93,3.93,0,0,0,1.159-3.086v-.836h-3.289a.612.612,0,0,1-.472-.189.683.683,0,0,1-.175-.485v-1.429a.685.685,0,0,1,.175-.485.613.613,0,0,1,.472-.189h6.442a.615.615,0,0,1,.472.189.686.686,0,0,1,.175.485v2.83a7.49,7.49,0,0,1-.984,3.895,6.473,6.473,0,0,1-2.817,2.547,9.714,9.714,0,0,1-4.286.89A8.136,8.136,0,0,1,573,334.125Z" transform="translate(-439.948 -130.725)" fill="#e9b640"/>
    <path id="Path_514" data-name="Path 514" d="M724.87,370.122a6.279,6.279,0,0,1-1.86-4.461l-.027-1.186.027-1.186a6.242,6.242,0,0,1,1.887-4.448,7.981,7.981,0,0,1,9.7,0,6.245,6.245,0,0,1,1.887,4.448q.026.323.027,1.186t-.027,1.186a6.282,6.282,0,0,1-1.86,4.461,8.113,8.113,0,0,1-9.758,0Zm7.089-1.941a4.266,4.266,0,0,0,.863-2.655q.026-.269.027-1.051t-.027-1.051a4.268,4.268,0,0,0-.863-2.655,3.156,3.156,0,0,0-4.421,0,4.267,4.267,0,0,0-.863,2.655l-.027,1.051.027,1.051a4.265,4.265,0,0,0,.863,2.655,3.156,3.156,0,0,0,4.421,0Z" transform="translate(-573.953 -166.44)" fill="#e9b640"/>
    <path id="Path_515" data-name="Path 515" d="M854.511,335.58a.623.623,0,0,1-.189-.458V317.278a.613.613,0,0,1,.189-.472.649.649,0,0,1,.458-.175h2.237a.6.6,0,0,1,.647.647v17.844a.649.649,0,0,1-.175.458.613.613,0,0,1-.472.189h-2.237A.623.623,0,0,1,854.511,335.58Z" transform="translate(-689.583 -130.725)" fill="#e9b640"/>
    <path id="Path_516" data-name="Path 516" d="M905.986,334.287a7.518,7.518,0,0,1-1.563-4.663l-.027-.89.027-.863a7.345,7.345,0,0,1,1.55-4.609,5.128,5.128,0,0,1,4.192-1.779,5.2,5.2,0,0,1,4.151,1.779v-5.984a.613.613,0,0,1,.189-.472.649.649,0,0,1,.458-.175h2.291a.6.6,0,0,1,.647.647v17.844a.649.649,0,0,1-.175.458.613.613,0,0,1-.472.189h-2.129a.644.644,0,0,1-.647-.647v-1a5.217,5.217,0,0,1-4.313,1.914A5.124,5.124,0,0,1,905.986,334.287Zm7.493-2.13a4.365,4.365,0,0,0,.836-2.453q.027-.324.027-1.051,0-.7-.027-1.024a3.737,3.737,0,0,0-.849-2.3,2.827,2.827,0,0,0-2.3-.957q-2.911,0-3.1,3.585l-.027.809.027.809q.188,3.585,3.1,3.585A2.72,2.72,0,0,0,913.48,332.157Z" transform="translate(-733.668 -130.725)" fill="#e9b640"/>
    <path id="Path_517" data-name="Path 517" d="M1046.588,337.565a.623.623,0,0,1-.189-.458V319.532a.612.612,0,0,1,.189-.472.649.649,0,0,1,.458-.175h2.507a.6.6,0,0,1,.647.647v15.014h8.544a.646.646,0,0,1,.674.674v1.887a.613.613,0,0,1-.189.472.685.685,0,0,1-.485.175h-11.7A.623.623,0,0,1,1046.588,337.565Z" transform="translate(-858.687 -132.71)" fill="#3b325f"/>
    <path id="Path_518" data-name="Path 518" d="M1168.036,371.2a4.569,4.569,0,0,1-1.806-1.5,3.662,3.662,0,0,1,.822-5.041,8.9,8.9,0,0,1,4.07-1.536l3.693-.539v-.566a2.417,2.417,0,0,0-.593-1.779,2.627,2.627,0,0,0-1.914-.593,2.742,2.742,0,0,0-1.442.337,4.728,4.728,0,0,0-.876.66q-.324.351-.431.458a.408.408,0,0,1-.4.323h-2.076a.594.594,0,0,1-.418-.162.557.557,0,0,1-.175-.431,2.916,2.916,0,0,1,.66-1.536,4.991,4.991,0,0,1,1.954-1.483,7.583,7.583,0,0,1,3.235-.62q3.18,0,4.636,1.429a5.017,5.017,0,0,1,1.455,3.747v8.464a.649.649,0,0,1-.175.458.612.612,0,0,1-.472.189H1175.6a.645.645,0,0,1-.647-.647v-1.051a4.4,4.4,0,0,1-1.685,1.415,5.964,5.964,0,0,1-2.709.553A5.726,5.726,0,0,1,1168.036,371.2Zm5.863-2.979a3.9,3.9,0,0,0,.943-2.83v-.566l-2.7.431a5.87,5.87,0,0,0-2.359.782,1.569,1.569,0,0,0-.8,1.321,1.534,1.534,0,0,0,.728,1.348,3.087,3.087,0,0,0,1.752.485A3.237,3.237,0,0,0,1173.9,368.222Z" transform="translate(-963.604 -166.44)" fill="#3b325f"/>
    <path id="Path_519" data-name="Path 519" d="M1292.723,371.294a.623.623,0,0,1-.189-.458V358.114a.644.644,0,0,1,.647-.647h2.21a.644.644,0,0,1,.647.647v1.105a5.4,5.4,0,0,1,4.5-2.022,5.01,5.01,0,0,1,3.935,1.631,6.417,6.417,0,0,1,1.456,4.434v7.574a.649.649,0,0,1-.175.458.613.613,0,0,1-.472.189h-2.372a.645.645,0,0,1-.647-.647v-7.413a3.62,3.62,0,0,0-.768-2.466,2.8,2.8,0,0,0-2.224-.876,2.914,2.914,0,0,0-2.251.889,3.475,3.475,0,0,0-.822,2.453v7.413a.648.648,0,0,1-.175.458.613.613,0,0,1-.472.189h-2.372A.623.623,0,0,1,1292.723,371.294Z" transform="translate(-1075.383 -166.44)" fill="#3b325f"/>
    <path id="Path_520" data-name="Path 520" d="M1424.016,370.014a6.9,6.9,0,0,1-1.873-4.892l-.027-.674.027-.674a6.946,6.946,0,0,1,1.9-4.825,6.42,6.42,0,0,1,4.731-1.752,6.263,6.263,0,0,1,4.919,1.941,7.466,7.466,0,0,1,1.738,5.175v.566a.624.624,0,0,1-.189.458.656.656,0,0,1-.485.189h-8.949v.216a4.264,4.264,0,0,0,.822,2.493,2.511,2.511,0,0,0,2.116,1.011,3.093,3.093,0,0,0,2.561-1.24,1.6,1.6,0,0,1,.391-.377.955.955,0,0,1,.445-.081h2.318a.627.627,0,0,1,.418.148.459.459,0,0,1,.175.364,2.507,2.507,0,0,1-.768,1.523,6.361,6.361,0,0,1-2.2,1.523,7.969,7.969,0,0,1-3.316.647A6.485,6.485,0,0,1,1424.016,370.014Zm7.75-6.752v-.081a3.915,3.915,0,0,0-.8-2.561,2.686,2.686,0,0,0-2.2-.97,2.646,2.646,0,0,0-2.183.97,3.956,3.956,0,0,0-.782,2.561v.081Z" transform="translate(-1189.466 -166.44)" fill="#3b325f"/>
  </g>
</svg>
